<svg xmlns="http://www.w3.org/2000/svg" viewBox="0 0 72 72" role="img" aria-labelledby="title desc">
  <title id="title">Leaderboard Logo</title>
  <desc id="desc">Trophy on a podium representing ranking leaderboard.</desc>

  <rect x="10" y="48" width="16" height="14" rx="2" fill="#4DB6AC"/>
  <rect x="26" y="40" width="20" height="22" rx="2" fill="#E45A4F"/>
  <rect x="46" y="48" width="16" height="14" rx="2" fill="#4F9BD8"/>

  <path d="M24 16h24v7c0 7-5.6 12.7-12.5 12.7S24 30 24 23v-7z" fill="#F4D570"/>
  <path d="M24 18h-5c0 5 2.5 8.8 7 10" fill="none" stroke="#F0C448" stroke-width="1.8" stroke-linecap="round"/>
  <path d="M48 18h5c0 5-2.5 8.8-7 10" fill="none" stroke="#F0C448" stroke-width="1.8" stroke-linecap="round"/>
  <rect x="33.2" y="35.7" width="5.6" height="6" fill="#F4D570"/>
  <rect x="30" y="41.5" width="12" height="4" rx="1" fill="#3B5B6D"/>
  <rect x="31.5" y="42.6" width="9" height="1.8" rx="0.9" fill="#EAF2F7"/>

  <text x="18" y="59" text-anchor="middle" font-family="Arial, sans-serif" font-size="9" fill="#EAF2F7">3</text>
  <text x="36" y="56.5" text-anchor="middle" font-family="Arial, sans-serif" font-size="12" fill="#FFFFFF">1</text>
  <text x="54" y="59" text-anchor="middle" font-family="Arial, sans-serif" font-size="9" fill="#EAF2F7">2</text>
</svg>